<?xml version="1.0" encoding="utf-8"?>
<!-- Generator: Adobe Illustrator 24.1.0, SVG Export Plug-In . SVG Version: 6.00 Build 0)  -->
<svg version="1.1" id="Слой_1" xmlns="http://www.w3.org/2000/svg" xmlns:xlink="http://www.w3.org/1999/xlink" x="0px" y="0px"
	 viewBox="0 0 1549.6 507" style="enable-background:new 0 0 1549.6 507;" xml:space="preserve">
<style type="text/css">
	.st0{fill:#FBC401;}
	.st1{fill:#060303;}
</style>
<path class="st0" d="M436.1,507H70.9C31.7,507,0,475.3,0,436.1V70.9C0,31.7,31.7,0,70.9,0h365.3C475.3,0,507,31.7,507,70.9v365.3
	C507,475.3,475.3,507,436.1,507z"/>
<path class="st1" d="M284.9,343.3v0.7c15.4,0.1,45.8,5.2,54.2-12.3c3-6.4,1.7-14.8,1.7-21.8c-6.5,1.3-12.5,6.5-18.1,9.9
	C310.1,327.4,296.5,334.4,284.9,343.3 M165.9,310c0,7.2-1.4,15.9,2,22.5c8.5,16.2,38.1,12.2,53.1,11.6c-2.6-4.8-9.3-7.3-13.8-10
	l-25.4-15.6C177.1,315.4,171.6,311.1,165.9,310 M476.4,407.9c-1.8-11.9-10.1-24.6-15-35.5l-32.4-72.5l-11.4-25.4
	c-1-2.2-2.2-7.5-5.1-8c-2.5-0.4-5.9,2.2-7.9,3.4l-17.4,10.7l-21.8,13.3c-2.4,1.5-6.5,3-7.9,5.5c-2.5,4.6,1.8,16.5,2.7,21.5
	c3.4,19.8,3.5,44.9,14.3,62.4c5.8,9.3,17.4,10.9,27.2,12.8C425.6,400.5,452,407.4,476.4,407.9 M30.3,407.9
	c23.8-0.5,49.9-7.1,73.3-11.6c9.8-1.9,21.2-3.3,27.8-11.6c4.4-5.6,6.1-13.4,7.7-20.3c3.2-14.1,5-28.5,7.4-42.8
	c0.9-5.5,5.1-16.4,3.1-21.6c-1.5-3.9-9.2-6.8-12.6-8.9L107.2,273c-3.2-1.9-8.4-6.6-12.3-6.7c-3.1-0.1-4.5,5.1-5.5,7.4l-11.4,25.4
	l-32.8,73.3C40.4,383.2,32.1,396.1,30.3,407.9 M245.7,129c-28.3,3.7-53,12.3-76.2,29.7c-4.8,3.6-18.5,12.1-19.5,18.6
	c-0.4,2.8,3.2,4.9,4.9,6.6l16.7,14.9l60.2,53.2l15.2,13.5c1.7,1.4,4.1,4.3,6.5,4c2.6-0.3,5.4-3.6,7.3-5.3l15.7-14l57.5-50.8
	l17.2-15.2c1.7-1.6,5.1-3.6,5.2-6.2c0.1-3-3.7-5.9-5.7-7.7c-5.7-5-11.1-10.1-17.4-14.3C308.6,139.2,276.6,124.9,245.7,129
	 M52.1,115.6c1.6,6.9,1,14.7,1.5,21.8l3.5,50c0.7,10.9,0.4,23.2,5.1,33.4c7.6,16.5,30.8,26.1,45.8,34.7c33.6,19.4,66.1,41,99.4,61
	l31.9,19.4c3.9,2.4,9.2,7,13.8,7.4c6.1,0.6,15.3-8,20.3-11l51.5-31.4l73.3-45c13.8-8,33.2-16.3,42.8-29.3c6.6-8.9,7-19.2,8-29.7
	c1.7-17.6,2.8-35.3,3.5-52.9c0.4-9.3,3-19.8,1.4-29c-6.7,3.5-12.5,10-18.1,15.1l-31.9,28.3c-33.1,29.8-66.5,59.2-100.1,88.4
	l-37,32.7c-2.9,2.5-9.7,10.9-13.8,10.4c-4-0.5-9-6.8-11.9-9.4l-30.2-26.8c-38.1-33.4-75.4-67.7-113.9-100.6l-31.9-28.2
	C61.6,121.7,57,115.5,52.1,115.6"/>
<path d="M691.2,161.1h-37.7v58.2h-35V58.5c0-9.7,8.2-17.9,18.1-17.9H709c34.1,0,61.6,27.8,61.6,61.8c0,27.3-17.6,48.3-42,55.8
	l43,61.1h-40.1L691.2,161.1z M653.5,128.5H709c14.7,0,26.6-11.6,26.6-26.1c0-14.7-11.8-26.8-26.6-26.8h-55.6V128.5z"/>
<path d="M826,129.3c0-51.2,41.3-92,92-92c49.8,0,91.8,39.9,91.8,92c0,51.2-41.1,92.5-91.8,92.5C867.3,221.8,826,180.5,826,129.3z
	 M975,129.3c0-31.6-25.6-57.2-57-57.2c-31.4,0-57,25.6-57,57.2s25.6,57.7,57,57.7C949.4,187,974.8,161.1,975,129.3z"/>
<path d="M1222.6,40.6v164.3c0,9.4-7.7,17.2-17.2,17.2c-5.3,0-10.4-2.7-13.3-6.3l-91.8-110.6v114.3h-35V54.6
	c0-9.4,7.7-17.2,17.2-17.2c5.6,0,10.1,2.4,13.3,6.3l91.8,112.6V40.6H1222.6z"/>
<path d="M1278.3,219.4V40.3h36.2v179.1H1278.3z"/>
<path d="M1526.7,40.6v164.3c0,9.4-7.7,17.2-17.2,17.2c-5.3,0-10.4-2.7-13.3-6.3l-91.8-110.6v114.3h-35V54.6
	c0-9.4,7.7-17.2,17.2-17.2c5.6,0,10.1,2.4,13.3,6.3l91.8,112.6V40.6H1526.7z"/>
<path d="M613.6,451.7l14.5-31.6c21.5,10.4,44.9,15.9,68.6,15.9c30.2,0,45.4-7.7,45.4-20.5c0-17.2-19.8-19.8-44.7-22.5
	c-33.8-3.9-79.2-7.7-79.2-51.2c0-34.5,35.3-55.3,80.2-55.3c25.8,0,52.7,5.3,74.9,14.5l-14.3,31.4c-19.6-8-40.6-12.6-60.6-12.6
	c-26.6,0-44.2,4.8-44.2,22c0,15,23.2,16.9,43.5,19.1c36.5,3.6,80.7,10.4,80.7,54.6c0,34.3-36.5,55.6-81.6,55.6
	C667,471,638.8,464.5,613.6,451.7z"/>
<path d="M841.2,390.6v-101h35v101c0,24.9,20.5,45.4,45.7,45.4c25.1,0,45.7-20.5,45.7-45.4v-101h35v101c0,44.4-36.2,80.4-80.7,80.4
	C877.4,471,841.2,435,841.2,390.6z"/>
<path d="M1065.3,451.7l14.5-31.6c21.5,10.4,44.9,15.9,68.6,15.9c30.2,0,45.4-7.7,45.4-20.5c0-17.2-19.8-19.8-44.7-22.5
	c-33.8-3.9-79.2-7.7-79.2-51.2c0-34.5,35.3-55.3,80.2-55.3c25.8,0,52.7,5.3,74.9,14.5l-14.3,31.4c-19.6-8-40.6-12.6-60.6-12.6
	c-26.6,0-44.2,4.8-44.2,22c0,15,23.2,16.9,43.5,19.1c36.5,3.6,80.7,10.4,80.7,54.6c0,34.3-36.5,55.6-81.6,55.6
	C1118.7,471,1090.5,464.5,1065.3,451.7z"/>
<path d="M1435.4,289.6v178.8h-35v-72h-86.7v72h-35V289.6h35v71.7h86.7v-71.7H1435.4z"/>
<path d="M1491.2,468.4V289.3h36.2v179.1H1491.2z"/>
</svg>
