<svg xmlns="http://www.w3.org/2000/svg" width="22.768" height="22.002" viewBox="0 0 19.768 19.002">
    <path d="M17178.713,18213.24a1.763,1.763,0,1,1,1.766,1.76A1.765,1.765,0,0,1,17178.713,18213.24Zm1.527,0c0,.26.475.256.475,0a.237.237,0,1,0-.475,0Zm-9.906,0a1.763,1.763,0,1,1,1.76,1.76A1.763,1.763,0,0,1,17170.334,18213.24Zm1.521,0c0,.26.477.26.477,0a.24.24,0,0,0-.238-.242A.244.244,0,0,0,17171.855,18213.24Zm8.146-2.811h-7.437a2.522,2.522,0,0,1-2.455-2.035l-1.27-6.35c-.01-.027-.014-.051-.02-.072l-.594-2.973H17166a1,1,0,0,1,0-2h3.049a1,1,0,0,1,.979.8l.6,3.008h12.133a1,1,0,0,1,.768.361,1.007,1.007,0,0,1,.215.828l-1.221,6.391a2.53,2.53,0,0,1-2.477,2.039Zm-7.932-2.424a.5.5,0,0,0,.521.42h7.438a.531.531,0,0,0,.535-.42l.988-5.2h-10.52Z" transform="translate(-17164.5 -18196.498)" fill="rgb(245 108 86)" stroke="rgba(0,0,0,0)" stroke-miterlimit="10" stroke-width="1"></path></svg>
